<?xml version="1.0" standalone="no"?><!DOCTYPE svg PUBLIC "-//W3C//DTD SVG 1.1//EN" "http://www.w3.org/Graphics/SVG/1.1/DTD/svg11.dtd"><svg t="1713785206854" class="icon" viewBox="0 0 1024 1024" version="1.1" xmlns="http://www.w3.org/2000/svg" p-id="5647" xmlns:xlink="http://www.w3.org/1999/xlink" width="256" height="256"><path d="M728.1664 195.8912c-90.0096 15.0528-194.4576 38.0928-296.96 56.32-37.7856 6.7584-71.9872 8.4992-102.8096 6.8608 3.9936-12.1856 8.4992-24.064 14.2336-35.5328 9.8304-19.8656 25.3952-32.4608 42.3936-43.9296 14.7456-1.2288 30.208-3.1744 46.1824-6.0416 67.584-12.0832 135.8848-26.112 200.3968-38.6048 7.0656 4.7104 14.7456 8.6016 23.2448 11.0592 27.8528 8.2944 52.1216 25.9072 73.3184 49.8688z" fill="#F5B619" p-id="5648"></path><path d="M777.6256 273.5104c-99.84 13.824-224.4608 42.1888-346.4192 64-48.64 8.704-91.4432 9.216-128.7168 4.5056l14.336-43.3152c3.584-13.2096 7.2704-26.5216 11.4688-39.5264 30.8224 1.7408 65.024-0.1024 102.8096-6.8608 102.5024-18.3296 206.9504-41.2672 296.96-56.32 18.944 21.2992 35.328 47.8208 49.5616 77.5168z" fill="#F4ED4F" p-id="5649"></path><path d="M812.544 347.7504c-104.7552 11.264-244.736 43.9296-381.3376 68.3008-61.952 11.0592-114.2784 8.8064-157.9008-0.4096 5.9392-8.0896 10.6496-18.3296 13.0048-25.1904l16.1792-48.4352c37.2736 4.7104 80.0768 4.1984 128.7168-4.5056 121.9584-21.8112 246.5792-50.176 346.4192-64 8.4992 17.7152 16.2816 36.5568 23.2448 56.0128 2.56 7.0656 6.5536 13.2096 11.6736 18.2272z" fill="#A7CF5B" p-id="5650"></path><path d="M856.6784 388.096c7.4752 12.4928 8.9088 26.7264 7.68 40.96-107.2128 3.2768-272.4864 43.4176-433.152 72.0896-120.5248 21.504-204.9024-7.168-258.4576-40.0384 11.9808-28.672 45.3632-46.2848 78.2336-33.8944 0.2048 0.1024 0.3072 0.1024 0.512 0.2048 0.4096 0.2048 0.8192 0.3072 1.2288 0.4096 7.0656 2.3552 14.4384-3.7888 20.5824-12.1856 43.52 9.216 95.9488 11.4688 157.9008 0.4096 136.6016-24.3712 276.5824-57.0368 381.3376-68.3008 5.632 5.5296 12.4928 9.5232 19.8656 11.776h-0.1024c-1.8432 0.512-3.584 1.1264-5.4272 1.7408 12.0832 5.0176 22.528 14.4384 29.7984 26.8288zM933.376 434.3808c-8.4992-2.1504-17.92-3.584-28.2624-4.4032 1.4336-14.5408 0.1024-29.184-7.5776-41.984-8.4992-14.336-21.1968-24.7808-35.84-28.8768 26.5216-7.3728 50.8928 5.632 64.6144 28.672 8.6016 14.1312 9.3184 30.5152 7.0656 46.592z" fill="#8AD0E3" p-id="5651"></path><path d="M431.2064 501.1456c160.6656-28.672 325.9392-68.8128 433.152-72.0896-1.024 10.9568-3.6864 21.9136-6.4512 32.0512-4.5056 15.872-11.776 32.4608-19.968 48.0256-6.656 0.512-13.5168 1.1264-20.5824 1.8432-1.7408 0.2048-3.4816 0.4096-5.3248 0.512-22.2208 2.3552-46.08 5.7344-71.168 9.8304-1.1264 0.2048-2.2528 0.4096-3.3792 0.512-1.7408 0.3072-3.584 0.6144-5.4272 0.9216-13.1072 2.1504-26.4192 4.5056-40.1408 6.9632-2.3552 0.4096-4.8128 0.8192-7.168 1.3312-2.3552 0.4096-4.8128 0.9216-7.2704 1.3312-2.6624 0.512-5.4272 1.024-8.0896 1.536-4.3008 0.8192-8.6016 1.6384-13.0048 2.4576-0.3072 0.1024-0.6144 0.1024-0.9216 0.2048-4.096 0.8192-8.0896 1.536-12.1856 2.3552-2.1504 0.4096-4.4032 0.8192-6.5536 1.2288l-11.0592 2.1504c-0.7168 0.1024-1.4336 0.3072-2.1504 0.4096-4.3008 0.8192-8.6016 1.6384-12.9024 2.56-0.1024 0-0.3072 0.1024-0.4096 0.1024-4.5056 0.8192-8.9088 1.7408-13.4144 2.6624-0.512 0.1024-0.9216 0.2048-1.4336 0.3072-4.096 0.8192-8.0896 1.6384-12.1856 2.3552-1.024 0.2048-2.1504 0.4096-3.1744 0.6144l-7.68 1.536c-0.9216 0.2048-1.8432 0.3072-2.7648 0.512-9.1136 1.8432-18.2272 3.584-27.4432 5.4272-2.9696 0.6144-5.8368 1.1264-8.704 1.7408l-15.6672 3.072c-3.3792 0.6144-6.7584 1.3312-10.1376 1.9456-4.608 0.9216-9.216 1.8432-13.824 2.6624-11.5712 2.2528-23.1424 4.4032-34.7136 6.5536-6.656 1.2288-13.312 2.4576-19.8656 3.6864-2.6624 0.512-5.2224 0.9216-7.8848 1.4336C324.608 598.8352 246.1696 578.56 192.512 550.8096c-11.8784-20.48-18.8416-35.4304-22.8352-52.5312-3.072-13.312-1.6384-26.112 3.072-37.1712 53.5552 32.8704 137.9328 61.5424 258.4576 40.0384zM879.616 507.4944c-2.9696 0-5.9392 0-8.9088 0.1024 2.9696-0.1024 6.0416-0.2048 8.9088-0.1024z" fill="#77C6B0" p-id="5652"></path><path d="M933.376 434.3808c-1.2288 9.0112-3.4816 18.0224-5.8368 26.4192-4.5056 15.872-11.776 32.3584-19.968 47.9232-1.1264-0.1024-2.3552-0.2048-3.4816-0.3072-1.1264-0.1024-2.3552-0.2048-3.584-0.3072-1.3312-0.1024-2.6624-0.2048-3.9936-0.2048-1.024-0.1024-2.048-0.1024-3.1744-0.2048-1.3312-0.1024-2.7648-0.1024-4.096-0.1024-1.1264 0-2.3552-0.1024-3.584-0.1024h-6.2464c7.8848-15.1552 14.848-31.0272 19.1488-46.4896 2.7648-9.8304 5.3248-20.48 6.4512-31.0272 10.4448 0.8192 19.968 2.3552 28.3648 4.4032z" fill="#77C6B0" p-id="5653"></path><path d="M792.2688 579.7888c-2.56 3.2768-3.584 7.3728-3.072 11.4688 0.3072 2.6624 0.6144 5.3248 1.024 7.9872-101.888 13.1072-231.936 42.9056-359.0144 65.6384-84.7872 15.1552-151.6544 5.4272-202.5472-13.1072 1.6384-6.3488 3.2768-11.8784 4.5056-16.1792 2.2528-7.4752 1.2288-15.6672-2.8672-22.3232-16.1792-26.7264-28.4672-46.2848-37.7856-62.464 53.6576 27.7504 132.096 48.0256 238.6944 28.9792 2.6624-0.512 5.2224-0.9216 7.8848-1.4336 6.656-1.2288 13.312-2.3552 19.8656-3.6864 11.5712-2.1504 23.1424-4.3008 34.7136-6.5536 4.608-0.9216 9.216-1.7408 13.824-2.6624 3.3792-0.6144 6.7584-1.3312 10.1376-1.9456l15.6672-3.072c2.9696-0.6144 5.8368-1.1264 8.704-1.7408 6.8608-1.3312 13.7216-2.6624 20.5824-4.096 2.2528-0.4096 4.608-0.9216 6.8608-1.3312 0.9216-0.2048 1.8432-0.3072 2.7648-0.512l7.68-1.536c1.024-0.2048 2.1504-0.4096 3.1744-0.6144 4.096-0.8192 8.0896-1.6384 12.1856-2.3552 0.512-0.1024 0.9216-0.2048 1.4336-0.3072 4.5056-0.9216 9.0112-1.7408 13.4144-2.6624 0.1024 0 0.3072 0 0.4096-0.1024 4.3008-0.8192 8.704-1.6384 12.9024-2.56 0.7168-0.1024 1.4336-0.3072 2.1504-0.4096l11.0592-2.1504c2.2528-0.4096 4.4032-0.8192 6.5536-1.2288 4.096-0.8192 8.192-1.536 12.1856-2.3552 0.3072-0.1024 0.6144-0.1024 0.9216-0.2048 4.3008-0.8192 8.704-1.6384 13.0048-2.4576 2.7648-0.512 5.4272-1.024 8.0896-1.536 2.4576-0.4096 4.8128-0.9216 7.2704-1.3312 2.4576-0.4096 4.8128-0.9216 7.168-1.3312 13.6192-2.4576 27.0336-4.8128 40.1408-6.9632 1.8432-0.3072 3.584-0.6144 5.4272-0.9216 1.1264-0.2048 2.2528-0.4096 3.3792-0.512 25.088-3.9936 48.9472-7.3728 71.168-9.8304 1.7408-0.2048 3.584-0.4096 5.3248-0.512 7.0656-0.7168 13.824-1.3312 20.5824-1.8432-16.6912 31.8464-37.0688 59.8016-45.568 70.7584zM870.7072 507.4944c3.072-0.1024 6.0416-0.1024 8.9088-0.1024-2.9696 0-5.9392 0.1024-8.9088 0.1024zM862.0032 579.4816c-2.4576 3.2768-3.584 7.3728-3.072 11.4688 0.1024 0.7168 0.2048 1.3312 0.3072 2.048-9.1136 0.4096-18.6368 1.024-28.5696 1.8432-0.2048-1.2288-0.3072-2.3552-0.4096-3.584-0.512-4.096 0.6144-8.192 3.072-11.4688 8.4992-11.264 29.4912-39.936 46.3872-72.2944h6.2464c1.2288 0 2.3552 0 3.584 0.1024 1.3312 0 2.7648 0.1024 4.096 0.1024 1.024 0 2.048 0.1024 3.1744 0.2048 1.3312 0.1024 2.6624 0.1024 3.9936 0.2048 1.2288 0.1024 2.3552 0.2048 3.584 0.3072 1.1264 0.1024 2.3552 0.2048 3.4816 0.3072-16.896 31.8464-37.376 59.8016-45.8752 70.7584z" fill="#B37CB4" p-id="5654"></path><path d="M871.6288 721.3056c-0.512-16.6912-1.7408-33.3824-3.2768-49.9712-2.4576-26.112-5.8368-52.224-9.1136-78.336-107.3152 4.4032-269.9264 43.7248-428.032 71.8848-84.7872 15.1552-151.6544 5.4272-202.5472-13.1072-4.8128 18.2272-10.752 44.1344-14.336 73.0112-3.3792 26.7264-4.8128 56.0128-1.7408 84.3776 1.3312 12.0832 3.4816 24.064 6.5536 35.5328 6.3488 23.1424 19.0464 42.8032 35.84 57.7536 28.0576 25.088 67.4816 36.6592 106.8032 28.3648 31.8464-6.656 84.2752-13.5168 165.376-13.5168 143.36 0 148.992 29.7984 249.2416 0.4096 34.4064-10.0352 62.2592-47.0016 77.6192-79.4624l1.2288-2.7648c11.1616-24.8832 15.36-51.9168 16.384-79.1552 0.512-11.6736 0.4096-23.3472 0-35.0208z" fill="#FFFFFF" p-id="5655"></path><path d="M631.6032 135.0656c-64.512 12.4928-132.9152 26.624-200.3968 38.6048-16.0768 2.8672-31.4368 4.8128-46.1824 6.0416 10.0352-6.7584 20.5824-13.1072 30.9248-20.2752 28.9792-20.2752 56.9344-42.0864 83.6608-65.3312 10.9568-9.5232 20.6848-15.4624 29.4912-18.6368 42.496-15.2576 64.1024 34.2016 102.5024 59.5968z" fill="#EB5C29" p-id="5656"></path><path d="M905.216 429.9776c-12.3904-1.024-26.112-1.3312-40.8576-0.8192 1.3312-14.2336-0.2048-28.4672-7.68-40.96-7.2704-12.3904-17.7152-21.8112-29.7984-26.8288 1.8432-0.6144 3.584-1.2288 5.4272-1.7408h0.1024c8.8064 2.6624 18.5344 2.8672 28.0576 0 0.2048-0.1024 0.4096-0.1024 0.6144-0.2048 0.2048-0.1024 0.512-0.1024 0.7168-0.2048 14.7456 4.096 27.3408 14.5408 35.84 28.8768 7.68 12.6976 9.0112 27.3408 7.5776 41.8816z" fill="#74AEBE" p-id="5657"></path><path d="M832.4096 359.5264c10.24-2.9696 20.1728-2.9696 29.3888-0.4096-0.2048 0.1024-0.512 0.1024-0.7168 0.2048-0.2048 0.1024-0.4096 0.1024-0.6144 0.2048-9.5232 2.8672-19.2512 2.6624-28.0576 0z" fill="#D3D1D2" p-id="5658"></path><path d="M905.216 429.9776c-1.024 10.6496-3.6864 21.1968-6.4512 31.0272-4.4032 15.36-11.264 31.3344-19.1488 46.4896-2.8672 0-5.9392 0-8.9088 0.1024-1.4336 0-2.8672 0-4.3008 0.1024-1.024 0-1.9456 0-2.9696 0.1024-0.8192 0-1.6384 0-2.4576 0.1024-2.048 0.1024-4.1984 0.2048-6.3488 0.3072-0.4096 0-0.8192 0-1.1264 0.1024-0.8192 0-1.6384 0.1024-2.56 0.1024-1.7408 0.1024-3.3792 0.2048-5.12 0.3072-1.6384 0.1024-3.1744 0.2048-4.8128 0.3072-1.024 0.1024-2.048 0.1024-3.072 0.2048 8.192-15.5648 15.4624-32.0512 19.968-48.0256 2.8672-10.1376 5.5296-21.0944 6.4512-32.0512 14.7456-0.512 28.4672-0.3072 40.8576 0.8192z" fill="#64A694" p-id="5659"></path><path d="M833.2288 579.7888c-2.4576 3.2768-3.584 7.3728-3.072 11.4688 0.1024 1.2288 0.3072 2.3552 0.4096 3.584-12.9024 1.1264-26.4192 2.56-40.448 4.4032-0.3072-2.6624-0.7168-5.3248-1.024-7.9872-0.512-4.096 0.512-8.192 3.072-11.4688 8.4992-10.9568 28.8768-38.912 45.568-70.656 1.024-0.1024 2.048-0.1024 3.072-0.2048 1.6384-0.1024 3.1744-0.2048 4.8128-0.3072 1.7408-0.1024 3.4816-0.2048 5.12-0.3072 0.8192-0.1024 1.7408-0.1024 2.56-0.1024 0.4096 0 0.8192-0.1024 1.1264-0.1024 2.1504-0.1024 4.3008-0.2048 6.3488-0.3072 0.8192 0 1.6384-0.1024 2.4576-0.1024 1.024 0 2.048-0.1024 2.9696-0.1024 1.4336 0 2.8672-0.1024 4.3008-0.1024 2.9696 0 6.0416-0.1024 8.9088-0.1024-16.6912 32.5632-37.6832 61.1328-46.1824 72.3968z" fill="#946796" p-id="5660"></path><path d="M842.8544 721.6128c1.3312 39.424-0.2048 80.384-17.408 116.6336-15.36 32.4608-43.2128 69.3248-77.6192 79.4624-44.3392 13.1072-70.2464 14.4384-97.6896 11.9808 15.7696-1.6384 33.792-5.2224 56.7296-11.9808 34.4064-10.0352 62.2592-47.0016 77.6192-79.4624 17.2032-36.2496 18.7392-77.2096 17.408-116.6336-1.3312-41.0624-6.5536-81.7152-11.6736-122.368 14.0288-1.8432 27.5456-3.2768 40.448-4.4032 5.2224 42.0864 10.752 84.3776 12.1856 126.7712zM879.616 507.4944c-2.9696 0-5.9392 0-8.9088 0.1024 2.9696-0.1024 6.0416-0.2048 8.9088-0.1024z" fill="#D3D1D2" p-id="5661"></path><path d="M394.3424 489.2672m-17.1008 0a17.1008 17.1008 0 1 0 34.2016 0 17.1008 17.1008 0 1 0-34.2016 0Z" fill="#EF8CA4" p-id="5662"></path><path d="M672.0512 489.2672m-17.1008 0a17.1008 17.1008 0 1 0 34.2016 0 17.1008 17.1008 0 1 0-34.2016 0Z" fill="#EF8CA4" p-id="5663"></path><path d="M307.8144 941.1584c-57.1392 0-109.1584-37.7856-124.7232-94.4128-21.4016-78.1312 2.6624-175.2064 14.0288-213.2992 1.6384-5.5296 0.9216-11.3664-2.048-16.2816-32.1536-53.1456-52.8384-99.4304-61.5424-137.3184-5.8368-25.088 2.3552-50.2784 21.8112-67.2768s45.4656-21.7088 69.632-12.5952l0.4096 0.1024c0.1024 0.1024 0.3072 0.1024 0.4096 0.2048l0.6144 0.2048c9.728 3.2768 20.48-2.3552 23.8592-12.4928 1.3312-3.9936 5.7344-6.144 9.728-4.8128 3.9936 1.3312 6.144 5.7344 4.8128 9.728-6.0416 18.0224-25.2928 27.8528-43.008 22.2208-0.512-0.1024-1.2288-0.3072-2.1504-0.7168-0.1024 0-0.3072-0.1024-0.4096-0.2048-18.7392-6.9632-38.8096-3.2768-53.8624 9.9328-15.0528 13.2096-21.4016 32.768-16.896 52.224 8.3968 36.352 28.4672 80.9984 59.6992 132.8128 5.2224 8.4992 6.5536 18.944 3.6864 28.5696-10.9568 36.864-34.4064 130.56-14.0288 204.9024 15.7696 57.6512 74.5472 93.0816 133.632 80.5888 29.9008-6.2464 83.0464-13.7216 166.912-13.7216 58.2656 0 93.7984 4.8128 122.368 8.704 41.3696 5.632 66.3552 9.0112 124.7232-7.9872 31.8464-9.3184 58.4704-45.056 72.8064-75.3664 1.8432-3.7888 6.3488-5.4272 10.24-3.6864 3.7888 1.8432 5.4272 6.3488 3.6864 10.24-7.68 16.1792-36.2496 70.0416-82.432 83.5584-61.44 18.0224-89.1904 14.2336-131.072 8.4992-28.16-3.7888-63.0784-8.6016-120.32-8.6016-82.5344 0-134.656 7.2704-163.84 13.312-8.9088 2.048-17.92 2.9696-26.7264 2.9696zM842.9568 728.9856c-4.096 0-7.5776-3.2768-7.68-7.4752-1.3312-39.7312-6.3488-79.872-11.264-118.6816l-1.3312-10.9568c-0.8192-6.2464 0.8192-12.288 4.608-17.2032 11.5712-15.0528 50.688-68.1984 64.2048-116.0192 6.5536-23.4496 11.0592-47.8208-0.3072-66.9696-13.0048-21.8112-34.6112-31.4368-56.6272-24.9856-10.3424 3.072-20.8896 7.68-31.1296 13.7216-4.7104 2.7648-10.24 3.1744-15.36 1.2288-5.12-1.9456-9.0112-6.144-10.6496-11.3664-17.5104-57.344-38.1952-104.448-61.6448-139.8784-27.0336-40.96-57.9584-66.8672-91.9552-76.8-25.1904-7.3728-43.52-25.9072-59.6992-42.1888-23.04-23.1424-38.2976-36.864-61.3376-28.672-8.192 2.9696-17.3056 8.704-27.0336 17.2032-26.7264 23.2448-55.0912 45.3632-84.2752 65.8432-6.144 4.3008-12.3904 8.2944-18.5344 12.1856-21.0944 13.5168-41.0624 26.3168-52.3264 49.152-1.8432 3.7888-6.4512 5.3248-10.3424 3.4816-3.7888-1.8432-5.3248-6.4512-3.4816-10.3424 13.2096-26.624 35.84-41.1648 57.856-55.1936 5.9392-3.7888 12.0832-7.7824 17.92-11.8784 28.7744-20.1728 56.7296-41.984 83.0464-64.8192 11.3664-9.8304 21.8112-16.384 31.9488-20.0704 33.4848-11.9808 55.808 10.4448 77.4144 32.256 15.6672 15.6672 31.744 31.9488 53.1456 38.2976 69.0176 20.2752 124.2112 96.6656 163.9424 226.9184 0.3072 1.024 1.024 1.4336 1.536 1.6384 0.512 0.2048 1.2288 0.3072 2.048-0.2048 11.264-6.656 22.9376-11.6736 34.5088-15.1552 28.5696-8.2944 57.6512 4.1984 74.1376 31.9488 14.4384 24.1664 9.1136 53.5552 1.9456 79.0528-14.336 50.4832-54.784 105.5744-66.8672 121.2416-1.2288 1.6384-1.8432 3.6864-1.536 5.8368l1.3312 10.9568c4.9152 39.2192 10.0352 79.6672 11.3664 120.1152 0.1024 4.1984-3.1744 7.7824-7.4752 7.8848 0.1024-0.1024 0-0.1024-0.1024-0.1024z" fill="#565656" p-id="5664"></path><path d="M269.0048 854.528c-1.8432 0-3.7888-0.7168-5.2224-2.1504-4.608-4.4032-10.752-15.36-17.92-62.3616-3.8912-25.088-6.144-49.0496-6.2464-49.2544-0.4096-4.1984 2.6624-7.9872 6.8608-8.3968 4.1984-0.4096 7.9872 2.6624 8.3968 6.8608 0 0.2048 2.2528 23.7568 6.0416 48.3328 7.0656 46.3872 12.8 53.0432 13.4144 53.6576 2.9696 2.9696 3.1744 7.7824 0.2048 10.8544-1.536 1.6384-3.584 2.4576-5.5296 2.4576z" fill="#D3D1D2" p-id="5665"></path><path d="M238.755941 721.072456a7.9872 7.9872 0 1 0 15.650645-3.199808 7.9872 7.9872 0 1 0-15.650645 3.199808Z" fill="#D3D1D2" p-id="5666"></path><path d="M656.351556 215.700741a7.9872 7.9872 0 1 0 13.791804-8.060248 7.9872 7.9872 0 1 0-13.791804 8.060248Z" fill="#FFFFFF" p-id="5667"></path><path d="M565.76 158.8224s49.2544 0.4096 80.5888 35.1232M646.3488 201.6256c-2.048 0-4.1984-0.8192-5.7344-2.56-28.5696-31.6416-74.5472-32.5632-74.9568-32.5632-4.1984 0-7.68-3.4816-7.5776-7.7824 0-4.1984 3.4816-7.5776 7.68-7.5776h0.1024c2.1504 0 53.0432 0.8192 86.2208 37.6832 2.8672 3.1744 2.56 7.9872-0.512 10.8544-1.536 1.3312-3.3792 1.9456-5.2224 1.9456z" fill="#FFFFFF" p-id="5668"></path><path d="M269.7216 370.176c-1.8432 0-3.6864-0.7168-5.2224-2.048-3.072-2.8672-3.2768-7.5776-0.512-10.752 4.8128-6.656 20.5824-61.8496 33.0752-111.5136 1.024-4.096 5.2224-6.656 9.3184-5.5296 4.096 1.024 6.656 5.2224 5.5296 9.3184-0.1024 0.3072-6.7584 26.8288-14.336 54.1696-15.872 56.9344-20.1728 61.5424-22.2208 63.7952-1.4336 1.7408-3.584 2.56-5.632 2.56z m-5.632-12.9024s0 0.1024 0 0c0 0.1024 0 0 0 0zM833.3312 825.5488c-0.9216 0-1.9456-0.2048-2.8672-0.512-3.8912-1.536-5.8368-6.0416-4.3008-10.0352 9.0112-22.528 9.3184-73.8304 9.3184-74.3424 0-4.1984 3.4816-7.68 7.68-7.68s7.68 3.4816 7.68 7.68c0 2.2528-0.2048 54.784-10.3424 80.0768-1.2288 2.9696-4.096 4.8128-7.168 4.8128zM529.7152 476.0576c-3.6864 0-7.4752-0.3072-11.3664-0.9216h-0.2048c-4.608-0.8192-10.8544-1.8432-15.5648-6.5536-2.9696-2.9696-2.9696-7.8848 0-10.8544 2.9696-2.9696 7.8848-2.9696 10.8544 0 1.2288 1.2288 4.608 1.7408 7.2704 2.2528h0.2048c4.1984 0.7168 8.2944 0.9216 12.1856 0.6144 5.9392-0.4096 11.4688-2.048 16.0768-4.8128 3.6864-2.1504 8.3968-0.9216 10.5472 2.7648 2.1504 3.6864 0.9216 8.3968-2.7648 10.5472-6.5536 3.8912-14.4384 6.2464-22.6304 6.8608-1.536 0.1024-3.072 0.1024-4.608 0.1024z" fill="#565656" p-id="5669"></path><path d="M462.9504 407.3472m-19.456 0a19.456 19.456 0 1 0 38.912 0 19.456 19.456 0 1 0-38.912 0Z" fill="#565656" p-id="5670"></path><path d="M593.7152 407.3472m-19.456 0a19.456 19.456 0 1 0 38.912 0 19.456 19.456 0 1 0-38.912 0Z" fill="#565656" p-id="5671"></path></svg>